<?xml version="1.0" encoding="utf-8"?>
<!-- Generator: Adobe Illustrator 26.0.1, SVG Export Plug-In . SVG Version: 6.00 Build 0)  -->
<svg version="1.1" id="Layer_1" xmlns="http://www.w3.org/2000/svg" xmlns:xlink="http://www.w3.org/1999/xlink" x="0px" y="0px"
	 viewBox="0 0 2000 405" style="enable-background:new 0 0 2000 405;" xml:space="preserve">
<style type="text/css">
	.st0{opacity:0.6;clip-path:url(#SVGID_00000127741174713360014830000000834031523154942877_);}
	.st1{fill:none;stroke:#C8C8C8;stroke-width:0.5;stroke-miterlimit:10;}
	.st2{fill:#0A7533;}
	.st3{fill:url(#SVGID_00000155134626156778695160000014934836721731112600_);}
	.st4{fill:#FFFFFF;}
	.st5{fill:none;}
	.st6{fill:#229022;}
	.st7{opacity:0.5;fill:#003300;enable-background:new    ;}
	.st8{fill:#0CB04A;}
	.st9{enable-background:new    ;}
	.st10{fill:none;stroke:#FFFFFF;stroke-width:0.5;stroke-miterlimit:10;}
	.st11{opacity:0.5;fill:#FFFFFF;enable-background:new    ;}
	.st12{fill:url(#SVGID_00000042732674775441838830000013407588741157210510_);}
	.st13{fill:#F8FAFD;}
</style>
<g>
	<path class="st4" d="M499.1,304.1l-0.4,40.3c0,6.4-5.4,11.8-11.8,11.8h-67c-6.4,0-11.8-5.3-11.8-11.8v-40.3
		c0-6.4,5.3-11.8,11.8-11.8h1.8v-15.7c0-17.8,14.3-32.1,31.7-32.1c17.8,0,32.1,14.6,32.1,32.1v15.7h1.8
		C494.1,292.3,499.5,297.7,499.1,304.1z"/>
	<g>
		<g>
			<g>
				<g>
					<path d="M0,182.5V14.3c0-3.6,1.4-6.4,3.9-8.9c2.5-2.5,5.7-3.9,8.9-3.9h25.3c3.6,0,6.8,1.4,9.3,3.9s3.6,5.7,3.6,8.9v167.9
						c0,3.6-1.4,6.4-3.9,8.9c-2.5,2.5-5.7,3.6-8.9,3.6H12.8c-3.6,0-6.4-1.1-8.9-3.6C1.1,189,0,186.1,0,182.5z"/>
					<path d="M89.5,182.2V14.3c0-3.6,1.1-6.4,3.6-8.9c2.5-2.5,5.3-3.9,8.9-3.9h39.6c3.2,0,6.4,1.4,10,3.9s6.4,5.7,8.6,8.9
						l81.6,125.5V13.9c0-3.6,1.1-6.4,3.6-8.9c2.5-2.5,5.3-3.6,8.9-3.6h23.2c3.6,0,6.4,1.1,8.9,3.6c2.5,2.5,3.6,5.7,3.6,9.3v167.9
						c0,3.6-1.1,6.4-3.6,8.9c-2.5,2.5-5.3,3.6-8.9,3.6h-44.6c-3.6,0-7.1-1.1-10.7-3.6s-6.4-5.3-8.9-8.9L138.7,66.7v115.9
						c0,3.6-1.1,6.4-3.6,8.9c-2.5,2.5-5.3,3.6-8.9,3.6h-23.5c-3.6,0-6.4-1.1-8.9-3.6C90.9,189,89.5,186.1,89.5,182.2z"/>
					<path d="M613.9,182.5V14.3c0-3.6,1.4-6.4,3.9-8.9c2.5-2.5,5.7-3.9,8.9-3.9h25.3c3.6,0,6.8,1.4,9.3,3.9c2.5,2.5,3.6,5.7,3.6,8.9
						v167.9c0,3.6-1.4,6.4-3.9,8.9c-2.5,2.5-5.7,3.6-8.9,3.6h-25.3c-3.6,0-6.4-1.1-8.9-3.6C615.3,189,613.9,186.1,613.9,182.5z"/>
					<path d="M703.8,182.2V14.3c0-3.6,1.1-6.4,3.6-8.9c2.5-2.5,5.3-3.9,8.9-3.9h39.6c3.2,0,6.4,1.4,10,3.9s6.4,5.7,8.6,8.9
						L856,139.8V13.9c0-3.6,1.1-6.4,3.6-8.9c2.5-2.5,5.3-3.6,8.9-3.6h23.2c3.6,0,6.4,1.1,8.9,3.6c2.5,2.5,3.6,5.7,3.6,9.3v167.9
						c0,3.6-1.1,6.4-3.6,8.9c-2.5,2.5-5.3,3.6-8.9,3.6h-44.9c-3.6,0-7.1-1.1-10.7-3.6s-6.4-5.3-8.9-8.9L752.6,66.3v115.9
						c0,3.6-1.1,6.4-3.6,8.9c-2.5,2.5-5.3,3.6-8.9,3.6h-23.5c-3.6,0-6.4-1.1-8.9-3.6C704.8,189,703.8,186.1,703.8,182.2z"/>
					<path d="M932.3,145.5c0-5.3,1.4-8.9,4.6-11.4c3.2-2.1,6.1-3.6,9.3-3.6h16c8.2,0,14.3,4.3,18.5,13.2
						c4.3,8.9,13.5,13.2,28.5,13.2l47.4,1.1c15.7,0,23.5-5.3,23.5-15.7c0-7.8-9.6-13.9-28.9-18.5c-8.6-2.1-18.2-3.9-28.5-6.1
						c-10.3-2.1-20.7-4.6-31-7.8s-20-6.8-28.5-10.7c-8.6-4.3-15.7-10-21-17.1s-8.2-15.7-8.2-25.7c0-18.2,6.4-32.1,19.3-41.7
						C966.2,4.6,988.3,0,1019.6,0l34.2,0.7c18.5,0,34.9,4.6,49.9,14.3c15,9.3,22.1,21.4,22.1,35.7c0,5.3-1.4,8.9-4.6,11.4
						c-3.2,2.1-6.1,3.6-8.9,3.6h-16c-8.2,0-14.3-4.3-18.5-13.2s-13.5-13.2-28.5-13.2l-40.6-0.7c-15.7,0-23.5,5.3-23.5,15.7
						c0,5.7,5,10.3,15,13.9c10,3.6,22.1,6.8,36.4,9.3c14.3,2.9,28.5,6.1,42.8,10c14.3,3.9,26.4,10.3,36.7,18.9c10,8.9,15,20,15,33.2
						c0,18.2-6.4,32.1-19.3,41.7c-12.8,10-34.9,14.6-66.3,14.6l-41-0.7c-18.5,0-34.9-4.6-49.9-14.3
						C939.8,171.5,932.3,159.7,932.3,145.5z"/>
					<path d="M1158.7,182.2V13.9c0-3.6,1.4-6.4,3.9-8.9c2.5-2.5,5.7-3.6,8.9-3.6h155.4c3.6,0,6.4,1.4,8.9,3.9
						c2.5,2.5,3.6,5.7,3.6,8.9v12.8c0,3.6-1.1,6.4-3.6,8.9c-2.5,2.5-5.3,3.6-8.9,3.6h-117.6v39.2h101.2c3.6,0,6.4,1.1,8.9,3.6
						c2.5,2.5,3.6,5.3,3.6,8.9v12.8c0,3.6-1.1,6.4-3.6,8.9c-2.5,2.5-5.3,3.6-8.9,3.6h-101.2v39.9h117.3c3.6,0,6.4,1.1,8.9,3.6
						c2.5,2.5,3.6,5.3,3.6,8.9v12.8c0,3.6-1.4,6.4-3.9,8.9s-5.7,3.6-8.9,3.6h-155.1c-3.6,0-6.4-1.1-8.9-3.6
						C1159.7,189,1158.7,185.7,1158.7,182.2z"/>
					<path d="M1364.4,182.2V14.3c0-3.6,1.1-6.4,3.6-8.9c2.5-2.5,5.3-3.9,8.9-3.9h39.6c3.2,0,6.4,1.4,10,3.9c3.6,2.5,6.4,5.7,8.6,8.9
						l81.6,125.5V13.9c0-3.6,1.1-6.4,3.6-8.9c2.5-2.5,5.3-3.6,8.9-3.6h23.2c3.6,0,6.4,1.1,8.9,3.6c2.5,2.5,3.6,5.7,3.6,9.3v167.9
						c0,3.6-1.1,6.4-3.6,8.9c-2.5,2.5-5.3,3.6-8.9,3.6h-44.9c-3.6,0-7.1-1.1-10.7-3.6s-6.4-5.3-8.9-8.9l-74.5-115.9v115.9
						c0,3.6-1.1,6.4-3.6,8.9c-2.5,2.5-5.3,3.6-8.9,3.6h-23.5c-3.6,0-6.4-1.1-8.9-3.6C1365.8,189,1364.4,186.1,1364.4,182.2z"/>
					<path d="M1593.3,145.5c0-5.3,1.4-8.9,4.6-11.4c3.2-2.1,6.1-3.6,9.3-3.6h16c8.2,0,14.3,4.3,18.5,13.2
						c4.3,8.9,13.5,13.2,28.5,13.2l47.4,1.4c15.7,0,23.5-5.3,23.5-15.7c0-7.8-9.6-13.9-28.9-18.5c-8.6-2.1-18.2-3.9-28.5-6.1
						c-10.3-2.1-20.7-4.6-31-7.8s-20-6.8-28.5-10.7c-8.6-4.3-15.7-10-21-17.1c-5.3-7.1-8.2-15.7-8.2-25.7c0-18.2,6.4-32.1,19.3-41.7
						c12.8-10,34.9-14.6,66.3-14.6l34.2,0.7c18.5,0,34.9,4.6,49.9,14.3c15,9.3,22.1,21.4,22.1,35.7c0,5.3-1.4,8.9-4.6,11.4
						c-3.2,2.1-6.1,3.6-8.9,3.6h-16.4c-8.2,0-14.3-4.3-18.5-13.2c-4.3-8.9-13.5-13.2-28.5-13.2l-40.6-0.7
						c-15.7,0-23.5,5.3-23.5,15.7c0,5.7,5,10.3,15,13.9s22.1,6.8,36.4,9.3c14.3,2.9,28.5,6.1,42.8,10c14.3,3.9,26.4,10.3,36.7,18.9
						c10,8.9,15,20,15,33.2c0,18.2-6.4,32.1-19.3,41.7c-12.8,10-34.9,14.6-66.3,14.6l-41-0.7c-18.5,0-34.9-4.6-49.9-14.3
						C1600.4,171.5,1593.3,159.7,1593.3,145.5z"/>
					<path d="M1819.3,182.2V13.9c0-3.6,1.4-6.4,3.9-8.9c2.5-2.5,5.7-3.6,8.9-3.6h155.4c3.6,0,6.4,1.4,8.9,3.9
						c2.5,2.5,3.6,5.7,3.6,8.9v12.8c0,3.6-1.1,6.4-3.6,8.9c-2.5,2.5-5.3,3.6-8.9,3.6h-117.6v39.2h101.3c3.6,0,6.4,1.1,8.9,3.6
						c2.5,2.5,3.6,5.3,3.6,8.9v12.8c0,3.6-1.1,6.4-3.6,8.9c-2.5,2.5-5.3,3.6-8.9,3.6h-101.3v39.9h117.3c3.6,0,6.4,1.1,8.9,3.6
						c2.5,2.5,3.6,5.3,3.6,8.9v12.8c0,3.6-1.4,6.4-3.9,8.9c-2.5,2.5-5.7,3.6-8.9,3.6h-155.1c-3.6,0-6.4-1.1-8.9-3.6
						C1820.7,189,1819.3,185.7,1819.3,182.2z"/>
					<g>
						<polygon class="st5" points="453.5,67.4 403.2,1.1 453.5,67.7 						"/>
						<polygon class="st6" points="453.5,67.7 403.2,1.1 307.3,1.1 453.5,195.7 501.6,130.8 453.5,67.4 						"/>
						<polygon class="st2" points="503,1.1 453.5,67.4 501.6,130.8 599.3,1.1 						"/>
						<polygon class="st7" points="461.3,57 453.5,67.4 501.6,130.8 510.9,118.7 						"/>
					</g>
				</g>
			</g>
			<g>
				<path class="st8" d="M453.5,259.9c-8.9,0-16,7.1-16,16v15.7h31.7h0.4v-15.7C469.5,267,462.4,259.9,453.5,259.9z"/>
				<path class="st8" d="M453.5,196.1c-57.8,0-104.5,46.7-104.5,104.5S395.7,405,453.5,405c57.8,0,104.5-46.7,104.5-104.5
					S511.2,196.1,453.5,196.1z M498.8,344.4c0,6.4-5.4,11.8-11.8,11.8h-67c-6.4,0-11.8-5.3-11.8-11.8v-40.3
					c0-6.4,5.3-11.8,11.8-11.8h1.8v-15.7c0-17.8,14.3-32.1,31.7-32.1c17.8,0,32.1,14.6,32.1,32.1v15.7h1.8c6.8,0,12.1,5.3,11.8,11.8
					L498.8,344.4z"/>
				<g class="st9">
					<path class="st8" d="M442.1,313c-0.4-0.4-0.4-0.7-0.4-1.1c0-0.4,0.4-1.1,1.1-1.4l6.8-5.7c1.1-0.7,2.5-1.4,3.9-1.4h3.9
						c0.7,0,1.4,0.4,1.8,0.7s0.7,1.1,0.7,1.8v34.2c0,0.7-0.4,1.4-0.7,1.8c-0.7,0.4-1.1,0.7-1.8,0.7h-5c-0.7,0-1.4-0.4-1.8-0.7
						s-0.7-1.1-0.7-1.8v-26.7l-3.2,2.5c-0.4,0.4-0.7,0.4-1.4,0.4c-0.4,0-0.7-0.4-1.1-0.7L442.1,313z"/>
				</g>
			</g>
		</g>
	</g>
</g>
</svg>
